<?xml version="1.0" standalone="no"?>
<!DOCTYPE svg PUBLIC "-//W3C//DTD SVG 20010904//EN"
 "http://www.w3.org/TR/2001/REC-SVG-20010904/DTD/svg10.dtd">
<svg version="1.0" xmlns="http://www.w3.org/2000/svg"
 width="512.000000pt" height="512.000000pt" viewBox="0 0 512.000000 512.000000"
 preserveAspectRatio="xMidYMid meet">

<g transform="translate(0.000000,512.000000) scale(0.100000,-0.100000)"
fill="#000000" stroke="none">
<path d="M688 4784 c-83 -20 -148 -56 -217 -120 -69 -63 -124 -163 -141 -253
-6 -30 -10 -236 -10 -472 l0 -419 2240 0 2240 0 0 419 c0 243 -4 441 -10 472
-35 184 -196 345 -379 379 -35 6 -696 10 -1860 9 -1504 -1 -1816 -3 -1863 -15z
m518 -490 c53 -39 69 -71 69 -134 0 -63 -16 -95 -69 -134 -23 -18 -45 -22
-144 -24 -137 -4 -179 6 -221 53 -52 59 -54 147 -4 206 44 52 73 59 215 57
110 -3 130 -6 154 -24z m800 0 c53 -39 69 -71 69 -134 0 -63 -16 -95 -69 -134
-23 -18 -45 -22 -144 -24 -137 -4 -179 6 -221 53 -52 59 -54 147 -4 206 44 52
73 59 215 57 110 -3 130 -6 154 -24z"/>
<path d="M320 1987 c0 -828 3 -1232 11 -1273 35 -190 193 -348 383 -383 84
-15 3608 -15 3692 0 190 35 348 193 383 383 8 41 11 445 11 1273 l0 1213
-2240 0 -2240 0 0 -1213z m1497 403 c32 -12 547 -521 569 -562 18 -35 18 -101
0 -136 -8 -15 -135 -147 -283 -294 -288 -287 -292 -290 -379 -274 -47 9 -111
73 -120 120 -15 84 -7 96 209 314 l201 202 -201 203 c-172 172 -202 208 -208
240 -24 127 94 230 212 187z m1624 -973 c106 -71 106 -203 0 -274 -34 -23 -36
-23 -401 -23 -365 0 -367 0 -401 23 -52 35 -79 82 -79 137 0 55 27 102 79 137
34 23 36 23 401 23 365 0 367 0 401 -23z"/>
</g>
</svg>
